<svg width="760" height="200" viewBox="0 0 760 200" fill="none" xmlns="http://www.w3.org/2000/svg">
<g clip-path="url(#clip0_101_3968)">
<path d="M59.2012 31.7466C60.2662 30.6816 60.2662 28.9548 59.2012 27.8897L41.8448 10.5334C40.7798 9.46835 39.0532 9.46835 37.9879 10.5334C36.9229 11.5985 36.9229 13.3253 37.9879 14.3904L53.4158 29.8182L37.9879 45.2461C36.9229 46.3111 36.9229 48.0377 37.9879 49.103C39.0532 50.168 40.7798 50.168 41.8448 49.103L59.2012 31.7466ZM4.76852e-07 32.5454H57.2727V27.0909H0L4.76852e-07 32.5454Z" fill="#55281D"/>
</g>
<path d="M575.6 22.6L590 37L604.4 22.6" stroke="#55281D" stroke-linecap="round" stroke-linejoin="round"/>
<path d="M288.906 21.0938C288.906 31.5136 296.861 42.8184 303.88 52.5877C305.549 54.9086 307.147 57.1315 308.537 59.2172C308.864 59.7064 309.413 60 310 60C310.587 60 311.136 59.7064 311.462 59.2172C312.853 57.1315 314.451 54.9084 316.12 52.5877C323.139 42.8184 331.094 31.5136 331.094 21.0938C331.094 9.46195 321.632 0 310 0C298.368 0 288.906 9.46195 288.906 21.0938ZM320.547 21.0938C320.547 26.9096 315.816 31.6406 310 31.6406C304.184 31.6406 299.453 26.9096 299.453 21.0938C299.453 15.2779 304.184 10.5469 310 10.5469C315.816 10.5469 320.547 15.2779 320.547 21.0938Z" fill="#55281D"/>
<path d="M310 28.125C313.883 28.125 317.031 24.977 317.031 21.0938C317.031 17.2105 313.883 14.0625 310 14.0625C306.117 14.0625 302.969 17.2105 302.969 21.0938C302.969 24.977 306.117 28.125 310 28.125Z" fill="#55281D"/>
<g clip-path="url(#clip1_101_3968)">
<path d="M200 46.6364V13.9091C200 7.88417 195.116 3 189.091 3L150.909 3C144.884 3 140 7.88417 140 13.9091V46.6364C140 52.6613 144.884 57.5455 150.909 57.5455H189.091C195.116 57.5455 200 52.6613 200 46.6364Z" fill="#55281D"/>
<path d="M174.545 21.1818L165.455 30.2727L174.545 39.3636" stroke="white" stroke-linecap="round" stroke-linejoin="round"/>
</g>
<g clip-path="url(#clip2_101_3968)">
<path d="M700 13.909V46.6363C700 52.6612 704.884 57.5454 710.909 57.5454H749.091C755.116 57.5454 760 52.6612 760 46.6363V13.909C760 7.88412 755.116 2.99995 749.091 2.99995H710.909C704.884 2.99995 700 7.88412 700 13.909Z" fill="#FF7757"/>
<path d="M725.455 39.3636L734.545 30.2727L725.455 21.1818" stroke="white" stroke-width="2" stroke-linecap="round" stroke-linejoin="round"/>
</g>
<path d="M450 5.00012L457.725 20.6501L475 23.1751L462.5 35.3502L465.45 52.5502L450 44.4252L434.55 52.5502L437.5 35.3502L425 23.1751L442.275 20.6501L450 5.00012Z" fill="#55281D"/>
<path d="M53.94 155.12C52.14 155.9 50.28 156.44 48.3 156.68C50.34 155.48 51.9 153.56 52.62 151.22C50.7 152.36 48.6 153.14 46.38 153.62C44.58 151.7 42 150.5 39.18 150.5C33.72 150.5 29.34 154.94 29.34 160.34C29.34 161.12 29.4 161.84 29.58 162.56C21.42 162.2 14.22 158.24 9.36 152.3C5.88 158.54 9.78 163.7 12.36 165.44C10.8 165.44 9.24 164.96 7.92 164.24C7.92 169.1 11.34 173.12 15.78 174.02C14.82 174.32 12.66 174.5 11.34 174.2C12.6 178.1 16.26 180.98 20.52 181.04C17.16 183.68 12.24 185.78 5.94 185.12C10.32 187.94 15.48 189.56 21.06 189.56C39.18 189.56 49.02 174.56 49.02 161.6C49.02 161.18 49.02 160.76 48.96 160.34C51 158.84 52.68 157.1 53.94 155.12V155.12Z" fill="#55281D"/>
<path d="M194 170.72C194.36 156.98 183.32 145.82 169.64 146C156.5 146.18 145.88 157.04 146 170.18C146.06 179.6 151.58 187.7 159.5 191.6C159.98 191.84 160.52 191.48 160.46 190.94C160.4 189.38 160.46 187.76 160.76 186.44C161.06 185.12 162.26 180.08 163.04 176.78C163.4 175.16 163.46 173.48 163.16 171.86C163.04 171.32 162.98 170.72 162.98 170C162.98 166.46 165.02 163.82 167.6 163.82C169.76 163.82 170.84 165.44 170.84 167.42C170.84 169.58 169.46 172.88 168.74 175.94C168.14 178.46 170 180.56 172.52 180.56C177.08 180.56 180.56 175.76 180.56 168.86C180.56 162.74 176.18 158.48 169.88 158.48C162.62 158.48 158.36 163.94 158.36 169.58C158.36 171.8 159.2 174.14 160.28 175.4C160.46 175.64 160.52 175.88 160.46 176.12C160.28 176.9 159.86 178.64 159.74 179C159.62 179.48 159.38 179.54 158.9 179.36C155.72 177.8 153.68 173.12 153.68 169.4C153.68 161.36 159.5 153.98 170.54 153.98C179.36 153.98 186.26 160.28 186.26 168.74C186.26 177.56 180.74 184.58 173 184.58C170.96 184.58 169.04 183.74 167.9 182.6C167.54 182.24 166.94 182.42 166.82 182.9C166.4 184.4 165.8 186.92 165.56 187.7C165.2 189.14 164.42 190.82 163.58 192.32C163.34 192.68 163.58 193.22 164 193.28C165.98 193.76 168.02 194.06 170.12 194C182.84 193.88 193.64 183.32 194 170.72Z" fill="#55281D"/>
<g clip-path="url(#clip3_101_3968)">
<path d="M310.591 200C310.392 200 310.193 200 309.993 199.999C305.29 200.011 300.945 199.891 296.718 199.634C292.844 199.398 289.307 198.059 286.49 195.762C283.772 193.546 281.916 190.549 280.973 186.855C280.153 183.64 280.109 180.484 280.068 177.431C280.038 175.241 280.006 172.645 280 170.006C280.006 167.355 280.038 164.76 280.068 162.569C280.109 159.517 280.153 156.361 280.973 153.145C281.916 149.452 283.772 146.455 286.49 144.238C289.307 141.941 292.844 140.602 296.719 140.366C300.945 140.109 305.291 139.99 310.005 140.001C314.709 139.991 319.053 140.109 323.279 140.366C327.154 140.602 330.69 141.941 333.508 144.238C336.226 146.455 338.082 149.452 339.024 153.145C339.845 156.36 339.888 159.517 339.93 162.569C339.96 164.76 339.992 167.355 339.998 169.995V170.006C339.992 172.645 339.96 175.241 339.93 177.431C339.888 180.483 339.845 183.64 339.024 186.855C338.082 190.549 336.226 193.546 333.508 195.762C330.69 198.059 327.154 199.398 323.279 199.634C319.232 199.88 315.075 200 310.591 200V200ZM309.993 195.312C314.62 195.323 318.868 195.206 322.995 194.955C325.924 194.777 328.464 193.826 330.545 192.129C332.469 190.561 333.794 188.396 334.483 185.696C335.166 183.02 335.205 180.146 335.243 177.367C335.273 175.191 335.304 172.614 335.31 170C335.304 167.386 335.273 164.809 335.243 162.633C335.205 159.854 335.166 156.98 334.483 154.303C333.794 151.603 332.469 149.439 330.545 147.87C328.464 146.174 325.924 145.223 322.995 145.045C318.868 144.794 314.62 144.678 310.004 144.688C305.378 144.677 301.13 144.794 297.003 145.045C294.073 145.223 291.533 146.174 289.452 147.87C287.529 149.439 286.204 151.603 285.515 154.303C284.832 156.98 284.793 159.854 284.755 162.633C284.725 164.811 284.694 167.389 284.687 170.006C284.694 172.61 284.725 175.189 284.755 177.367C284.793 180.146 284.832 183.02 285.515 185.696C286.204 188.396 287.529 190.561 289.452 192.129C291.533 193.826 294.073 194.777 297.003 194.955C301.13 195.206 305.379 195.323 309.993 195.312V195.312ZM309.881 184.649C301.805 184.649 295.233 178.077 295.233 170C295.233 161.923 301.805 155.352 309.881 155.352C317.959 155.352 324.53 161.923 324.53 170C324.53 178.077 317.959 184.649 309.881 184.649V184.649ZM309.881 160.039C304.389 160.039 299.92 164.508 299.92 170C299.92 175.492 304.389 179.961 309.881 179.961C315.374 179.961 319.842 175.492 319.842 170C319.842 164.508 315.374 160.039 309.881 160.039V160.039ZM326.17 150.664C324.229 150.664 322.655 152.238 322.655 154.18C322.655 156.122 324.229 157.695 326.17 157.695C328.112 157.695 329.686 156.122 329.686 154.18C329.686 152.238 328.112 150.664 326.17 150.664Z" fill="#55281D"/>
</g>
<path d="M568.75 157.5C568.06 157.5 567.5 156.94 567.5 156.25C567.5 155.56 568.06 155 568.75 155H611.25C611.94 155 612.5 155.56 612.5 156.25C612.5 156.94 611.94 157.5 611.25 157.5H568.75ZM568.75 170C568.06 170 567.5 169.44 567.5 168.75C567.5 168.06 568.06 167.5 568.75 167.5H611.25C611.94 167.5 612.5 168.06 612.5 168.75C612.5 169.44 611.94 170 611.25 170H568.75ZM568.75 182.5C568.06 182.5 567.5 181.94 567.5 181.25C567.5 180.56 568.06 180 568.75 180H611.25C611.94 180 612.5 180.56 612.5 181.25C612.5 181.94 611.94 182.5 611.25 182.5H568.75Z" fill="#55281D"/>
<path fill-rule="evenodd" clip-rule="evenodd" d="M449.904 140.909C455.313 140.971 460.199 142.3 464.563 144.897C468.874 147.442 472.461 151.051 474.979 155.378C477.561 159.768 478.882 164.683 478.943 170.125C478.79 177.57 476.442 183.929 471.898 189.202C467.355 194.475 461.536 197.737 455.512 198.987V178.113H461.207L462.495 169.91H453.872V164.537C453.824 163.423 454.176 162.329 454.865 161.452C455.554 160.573 456.769 160.111 458.508 160.066H463.715V152.88C463.641 152.856 462.932 152.761 461.589 152.595C460.065 152.417 458.533 152.322 456.999 152.31C453.528 152.326 450.783 153.305 448.763 155.247C446.744 157.189 445.712 159.999 445.669 163.676V169.91H439.106V178.113H445.669V198.987C438.272 197.737 432.453 194.475 427.91 189.202C423.367 183.929 421.018 177.57 420.865 170.125C420.927 164.683 422.248 159.767 424.829 155.378C427.348 151.051 430.934 147.442 435.246 144.897C439.609 142.301 444.496 140.971 449.904 140.909V140.909Z" fill="#55281D"/>
<defs>
<clipPath id="clip0_101_3968">
<rect width="60" height="43.6364" fill="white" transform="translate(0 8)"/>
</clipPath>
<clipPath id="clip1_101_3968">
<rect width="60" height="54.5455" fill="white" transform="translate(140 3)"/>
</clipPath>
<clipPath id="clip2_101_3968">
<rect width="60" height="54.5455" fill="white" transform="translate(700 3)"/>
</clipPath>
<clipPath id="clip3_101_3968">
<rect width="60" height="60" fill="white" transform="translate(280 140)"/>
</clipPath>
</defs>
</svg>
