<svg width="345" height="64" viewBox="0 0 345 64" fill="none" xmlns="http://www.w3.org/2000/svg">
<path d="M25.0518 12.2879V61.7627H15.7323V12.2879H0.5V4.36881H40.2059V12.2879H25.0518Z" fill="#55281D"/>
<path d="M48.5464 30.5175C49.4601 28.0608 50.661 26.2444 52.1489 25.0683C53.663 23.8921 55.5296 23.3041 57.7485 23.3041C58.9493 23.3041 60.1241 23.4478 61.2727 23.7353C62.4474 24.0228 63.596 24.441 64.7186 24.9898L61.6643 32.2033C60.9333 31.6806 60.1371 31.3016 59.2756 31.0664C58.4403 30.805 57.5005 30.6744 56.4563 30.6744C53.6369 30.6744 51.6138 31.8113 50.3869 34.0851C49.1599 36.3327 48.5464 40.1224 48.5464 45.4541V61.7627H40.0492V24.5194H48.5464V30.5175Z" fill="#55281D"/>
<path d="M104.503 61.7627H96.0055V56.9407C94.4914 59.0838 92.7163 60.6781 90.6801 61.7235C88.67 62.7689 86.3597 63.2916 83.7492 63.2916C78.502 63.2916 74.3644 61.5014 71.3362 57.9208C68.3341 54.3141 66.8331 49.3875 66.8331 43.1411C66.8331 37.2083 68.3733 32.4254 71.4537 28.7926C74.5341 25.1336 78.5543 23.3041 83.5142 23.3041C86.5424 23.3041 89.1268 23.9444 91.2674 25.2251C93.4342 26.4796 95.0135 28.296 96.0055 30.6744V24.5978H104.503V61.7627ZM96.2405 43.0627C96.2405 39.2207 95.3398 36.2282 93.5386 34.0851C91.7634 31.9419 89.2704 30.8704 86.0595 30.8704C82.8486 30.8704 80.3164 31.9811 78.4629 34.2027C76.6355 36.3981 75.7219 39.4559 75.7219 43.3763C75.7219 47.3228 76.6094 50.3676 78.3846 52.5107C80.1597 54.6538 82.6658 55.7254 85.9028 55.7254C88.9571 55.7254 91.4371 54.5623 93.3428 52.2363C95.2746 49.9102 96.2405 46.8523 96.2405 43.0627Z" fill="#55281D"/>
<path d="M129.29 63.9973L109.828 24.5978H119.109L127.214 43.2979C127.475 43.8729 127.788 44.7353 128.154 45.8853C128.519 47.0353 128.898 48.4074 129.29 50.0017C129.551 48.8778 129.851 47.7671 130.19 46.6694C130.556 45.5455 130.986 44.4217 131.482 43.2979L139.549 24.5978H148.79L129.29 63.9973Z" fill="#55281D"/>
<path d="M189.906 44.4348H160.224C160.433 47.9108 161.464 50.6289 163.318 52.5891C165.171 54.5231 167.638 55.4902 170.718 55.4902C173.459 55.4902 175.744 54.9152 177.571 53.7652C179.398 52.6152 180.991 50.7596 182.348 48.1983L189.514 52.1971C187.426 55.9345 184.841 58.7179 181.761 60.5474C178.68 62.3769 175.065 63.2916 170.914 63.2916C164.962 63.2916 160.224 61.4752 156.7 57.8424C153.176 54.2095 151.414 49.3613 151.414 43.2979C151.414 37.4696 153.228 32.6868 156.857 28.9494C160.511 25.1859 165.197 23.3041 170.914 23.3041C176.892 23.3041 181.552 25.016 184.893 28.4398C188.235 31.8635 189.906 36.6594 189.906 42.8274V44.4348ZM181.095 38.7111C180.756 36.0452 179.738 34.0197 178.041 32.6345C176.344 31.2232 174.021 30.5175 171.071 30.5175C168.278 30.5175 166.032 31.1971 164.336 32.5561C162.639 33.9152 161.451 35.9668 160.772 38.7111H181.095Z" fill="#55281D"/>
<path d="M199.186 61.7627V0.997314H207.683V61.7627H199.186Z" fill="#55281D"/>
<path d="M220.253 61.7627V0.997314H228.75V61.7627H220.253Z" fill="#55281D"/>
<path d="M240.184 8.52438C240.184 7.08692 240.706 5.84548 241.75 4.80005C242.821 3.75463 244.087 3.23191 245.549 3.23191C247.063 3.23191 248.316 3.74156 249.308 4.76085C250.326 5.754 250.835 7.00852 250.835 8.52438C250.835 10.0403 250.326 11.3209 249.308 12.3663C248.29 13.3856 247.037 13.8953 245.549 13.8953C244.087 13.8953 242.821 13.3725 241.75 12.3271C240.706 11.2556 240.184 9.98798 240.184 8.52438ZM241.32 61.7627V24.5978H249.817V61.7627H241.32Z" fill="#55281D"/>
<path d="M296.923 61.7627H288.426V56.9407C286.912 59.0838 285.137 60.6781 283.101 61.7235C281.091 62.7689 278.78 63.2916 276.17 63.2916C270.923 63.2916 266.785 61.5014 263.757 57.9208C260.755 54.3141 259.254 49.3875 259.254 43.1411C259.254 37.2083 260.794 32.4254 263.874 28.7926C266.955 25.1336 270.975 23.3041 275.935 23.3041C278.963 23.3041 281.548 23.9444 283.688 25.2251C285.855 26.4796 287.434 28.296 288.426 30.6744V24.5978H296.923V61.7627ZM288.661 43.0627C288.661 39.2207 287.761 36.2282 285.959 34.0851C284.184 31.9419 281.691 30.8704 278.48 30.8704C275.269 30.8704 272.737 31.9811 270.884 34.2027C269.056 36.3981 268.143 39.4559 268.143 43.3763C268.143 47.3228 269.03 50.3676 270.805 52.5107C272.58 54.6538 275.087 55.7254 278.324 55.7254C281.378 55.7254 283.858 54.5623 285.764 52.2363C287.695 49.9102 288.661 46.8523 288.661 43.0627Z" fill="#55281D"/>
<path d="M308.671 61.7627V24.5978H316.659V30.6744C318.356 28.1131 320.353 26.2444 322.65 25.0683C324.947 23.8921 327.741 23.3041 331.03 23.3041C333.797 23.3041 336.146 23.7484 338.078 24.637C340.036 25.4995 341.563 26.7932 342.66 28.5182C343.312 29.5375 343.782 30.7266 344.069 32.0857C344.356 33.4447 344.5 35.8231 344.5 39.2207V61.7627H335.924V42.6706C335.924 37.7832 335.324 34.5424 334.123 32.9482C332.949 31.3277 330.847 30.5175 327.819 30.5175C325.835 30.5175 324.06 30.8834 322.493 31.6152C320.953 32.347 319.739 33.3794 318.852 34.7123C318.225 35.6009 317.781 36.7509 317.52 38.1622C317.285 39.5474 317.168 41.7689 317.168 44.8268V61.7627H308.671Z" fill="#55281D"/>
</svg>
